<svg width="300" height="620" viewBox="0 0 300 620" fill="none" xmlns="http://www.w3.org/2000/svg">
  <!-- Android S25 Ultra Frame -->
  <rect x="10" y="10" width="280" height="600" rx="25" ry="25" fill="#2a2a2a" stroke="#444" stroke-width="2"/>
  
  <!-- Screen -->
  <rect x="15" y="15" width="270" height="590" rx="20" ry="20" fill="#000"/>
  
  <!-- Front Camera (Punch Hole) -->
  <circle cx="150" cy="35" r="6" fill="#1a1a1a"/>
  
  <!-- Screen Content Area -->
  <rect x="20" y="50" width="260" height="520" rx="15" ry="15" fill="#111" stroke="#333" stroke-width="1"/>
  
  <!-- Navigation Bar Area -->
  <rect x="20" y="575" width="260" height="25" rx="12.5" ry="12.5" fill="#1a1a1a"/>
  
  <!-- Navigation Buttons -->
  <rect x="70" y="585" width="20" height="3" rx="1.5" ry="1.5" fill="#666"/>
  <circle cx="150" cy="587" r="3" fill="#666"/>
  <rect x="210" y="585" width="20" height="3" rx="1.5" ry="1.5" fill="#666"/>
  
  <!-- Side Buttons -->
  <rect x="5" y="100" width="3" height="40" rx="1.5" ry="1.5" fill="#444"/>
  <rect x="5" y="150" width="3" height="60" rx="1.5" ry="1.5" fill="#444"/>
  <rect x="292" y="120" width="3" height="30" rx="1.5" ry="1.5" fill="#444"/>
  
  <!-- S Pen Slot -->
  <rect x="292" y="450" width="3" height="20" rx="1.5" ry="1.5" fill="#444"/>
</svg>